<?xml version="1.0"?>
<svg width="32" height="32" xmlns="http://www.w3.org/2000/svg">
 <title/>

 <g>
  <title>background</title>
  <rect fill="none" id="canvas_background" height="34" width="34" y="-1" x="-1"/>
 </g>
 <g>
  <title>Layer 1</title>
  <g id="Icons new Arranged Names" fill-rule="evenodd" fill="none">
   <g id="101 Warning" fill="#000000">
    <path fill="#ff0400" id="Triangle 29" d="m14.42423,6.14839c0.87007,-1.40766 2.2828,-1.40431 3.15079,0l10.785089,17.44899c1.161531,1.87921 0.315441,3.40262 -1.888699,3.40262l-20.943561,0c-2.20463,0 -3.05399,-1.51734 -1.88871,-3.40262l10.785089,-17.44899zm1.57577,13.85161c0.55228,0 1,-0.453039 1,-0.99703l0,-6.005939c0,-0.55064 -0.443859,-0.99703 -1,-0.99703c-0.55228,0 -1,0.45304 -1,0.99703l0,6.005939c0,0.55064 0.44386,0.99703 1,0.99703zm0,4c0.55228,0 1,-0.44772 1,-1c0,-0.55228 -0.44772,-1 -1,-1c-0.55229,0 -1,0.44772 -1,1c0,0.55228 0.44771,1 1,1zm0,0"/>
   </g>
  </g>
 </g>
</svg>